<svg id="레이어_1" data-name="레이어 1" xmlns="http://www.w3.org/2000/svg" xmlns:xlink="http://www.w3.org/1999/xlink" viewBox="0 0 24 24"><defs><style>.cls-1{fill:none;}.cls-2{clip-path:url(#clip-path);}</style><clipPath id="clip-path"><rect class="cls-1" y="3.6" width="24" height="16.69"/></clipPath></defs><title>label</title><g class="cls-2"><path d="M23.52,10.54,19.42,5a3.44,3.44,0,0,0-2.54-1.3H1.93A1.93,1.93,0,0,0,0,5.58V18.31a1.93,1.93,0,0,0,1.93,1.93h15A3.44,3.44,0,0,0,19.42,19l4.1-5.6a2.49,2.49,0,0,0,0-2.81Zm-1.07,2-4.1,5.59a2.16,2.16,0,0,1-1.48.75H1.93a.6.6,0,0,1-.6-.6V5.58a.6.6,0,0,1,.6-.6h15a2.18,2.18,0,0,1,1.48.75l4.1,5.59a1.21,1.21,0,0,1,0,1.26Zm0,0"/></g></svg>